:FULLY-SPECIFIED
:FORCE-ALL-JOINTS-BE-3DOF
:DEGREES
408
root 4.57069 16.2201 -11.1921 1.60496 -38.5123 -1.40363
lfemur -28.7573 7.05149 -10.0916
ltibia 45.5626 -0 0
lfoot -11.9424 14.3016 0.0164142
ltoes 1.42784 -0 0
rfemur -41.8475 -25.4442 26.0801
rtibia 86.2087 -0 0
rfoot 4.68465 -3.98435 -0.0172517
rtoes 38.7436 -0 0
lowerback 5.67172 4.67646 -0.75547
upperback 1.70869 6.12053 -2.25047
thorax -1.23745 3.05096 -2.28874
lowerneck -6.26888 2.46806 7.41492
upperneck 3.81591 2.64223 0.171946
head 2.42053 1.43258 -1.12314
lclavicle -0 0 0
lhumerus -45.5451 -17.7743 94.1799
lradius 51.2988 -0 0
lwrist 19.3373 0 0
lhand -19.2092 2.71639 0.00874516
lfingers 0 -0 0
lthumb 7.10316 32.5747 0.00818321
rclavicle -0 0 0
rhumerus -45.372 10.0988 -91.5681
rradius 64.3238 -0 0
rwrist 7.9606 0 0
rhand -19.3526 -17.5478 -0.00531034
rfingers 0 -0 0
rthumb 6.96466 -47.4085 -0.00466302
409
root 4.51305 16.1953 -11.0919 1.44165 -38.7166 -1.34051
lfemur -28.4834 7.57236 -10.0809
ltibia 46.3036 -0 0
lfoot -12.7673 13.9217 0.0273593
ltoes 1.60728 -0 0
rfemur -43.1372 -25.0151 25.8
rtibia 85.3912 -0 0
rfoot 4.27925 -3.17171 -0.0287552
rtoes 37.3365 -0 0
lowerback 5.81033 4.63348 -0.686506
upperback 1.74264 6.06372 -2.26524
thorax -1.27272 3.02236 -2.34856
lowerneck -6.27 2.68802 7.58305
upperneck 3.8556 2.93756 -0.137423
head 2.46025 1.57424 -1.24142
lclavicle -0 0 0
lhumerus -45.4457 -17.696 94.1909
lradius 50.986 -0 0
lwrist 18.8843 0 0
lhand -19.6398 2.32857 0.0145758
lfingers 0 -0 0
lthumb 6.68739 32.1988 0.0136391
rclavicle -0 0 0
rhumerus -45.3282 9.87892 -91.3255
rradius 64.707 -0 0
rwrist 8.15895 0 0
rhand -19.9571 -17.38 -0.00885092
rfingers 0 -0 0
rthumb 6.38099 -47.2559 -0.00777199
410
root 4.45541 16.1705 -10.9916 1.27758 -38.9208 -1.27646
lfemur -28.209 8.09317 -10.0676
ltibia 47.0446 -0 0
lfoot -13.5923 13.5416 0.0328325
ltoes 1.78673 -0 0
rfemur -44.4246 -24.5918 25.5103
rtibia 84.5736 -0 0
rfoot 3.87373 -2.35902 -0.0345076
rtoes 35.9295 -0 0
lowerback 5.94888 4.59033 -0.617651
upperback 1.7766 6.00693 -2.28005
thorax -1.30796 2.99372 -2.40837
lowerneck -6.27048 2.90798 7.7512
upperneck 3.8937 3.2331 -0.446673
head 2.49969 1.71598 -1.35962
lclavicle -0 0 0
lhumerus -45.3463 -17.6177 94.2021
lradius 50.6731 -0 0
lwrist 18.4313 0 0
lhand -20.0705 1.94071 0.0174912
lfingers 0 -0 0
lthumb 6.2716 31.8229 0.0163672
rclavicle -0 0 0
rhumerus -45.2855 9.6588 -91.0832
rradius 65.0902 -0 0
rwrist 8.3573 0 0
rhand -20.5617 -17.2122 -0.0106213
rfingers 0 -0 0
rthumb 5.79731 -47.1033 -0.00932656
411
root 4.39777 16.1457 -10.8914 1.11274 -39.1248 -1.21147
lfemur -27.9342 8.61391 -10.0518
ltibia 47.7855 -0 0
lfoot -14.4174 13.1615 0.0328325
ltoes 1.96618 -0 0
rfemur -45.7102 -24.1746 25.2111
rtibia 83.7561 -0 0
rfoot 3.46816 -1.5463 -0.0345076
rtoes 34.5224 -0 0
lowerback 6.08737 4.54701 -0.548904
upperback 1.81057 5.95014 -2.29488
thorax -1.34317 2.96505 -2.46816
lowerneck -6.2703 3.12794 7.91939
upperneck 3.93022 3.52884 -0.755821
head 2.53883 1.8578 -1.47772
lclavicle -0 0 0
lhumerus -45.2469 -17.5394 94.2134
lradius 50.3603 -0 0
lwrist 17.9783 0 0
lhand -20.5012 1.55285 0.0174912
lfingers 0 -0 0
lthumb 5.8558 31.4469 0.0163672
rclavicle -0 0 0
rhumerus -45.2437 9.43851 -90.8413
rradius 65.4734 -0 0
rwrist 8.55565 0 0
rhand -21.1662 -17.0445 -0.0106213
rfingers 0 -0 0
rthumb 5.21362 -46.9507 -0.00932656
